<svg width="50" height="36" viewBox="0 0 50 36" fill="none" xmlns="http://www.w3.org/2000/svg">
<path d="M14.2975 29.8751C13.6856 29.876 13.0947 29.6517 12.6375 29.2451L-0.0124969 18.0001L13.34 6.13008C13.8377 5.70432 14.4826 5.49087 15.136 5.53564C15.7895 5.58041 16.3993 5.87983 16.8342 6.3695C17.2692 6.85918 17.4946 7.49999 17.4621 8.15415C17.4295 8.80831 17.1415 9.42355 16.66 9.86758L7.5125 18.0001L15.9575 25.5051C16.3369 25.8417 16.6049 26.2858 16.726 26.7784C16.8471 27.2709 16.8154 27.7887 16.6353 28.2628C16.4552 28.737 16.1351 29.1452 15.7176 29.4331C15.3 29.7211 14.8047 29.8752 14.2975 29.8751V29.8751ZM36.66 29.8701L50.0125 18.0001L37.3625 6.75508C36.8669 6.31482 36.2167 6.08948 35.5549 6.12863C34.8931 6.16778 34.274 6.46821 33.8338 6.96383C33.3935 7.45945 33.1682 8.10967 33.2073 8.77144C33.2464 9.43321 33.5469 10.0523 34.0425 10.4926L42.4875 18.0001L33.34 26.1301C32.844 26.5703 32.5433 27.1896 32.5039 27.8516C32.4645 28.5136 32.6897 29.1641 33.13 29.6601C33.5703 30.156 34.1895 30.4568 34.8515 30.4962C35.5135 30.5356 36.164 30.3103 36.66 29.8701V29.8701ZM24.965 33.4126L29.965 3.41258C30.0289 3.08471 30.0265 2.74736 29.9579 2.42044C29.8893 2.09353 29.7558 1.78368 29.5654 1.5092C29.375 1.23473 29.1316 1.00119 28.8494 0.822385C28.5672 0.64358 28.2521 0.523135 27.9226 0.468165C27.5931 0.413194 27.256 0.424813 26.931 0.502334C26.6061 0.579855 26.3 0.721707 26.0309 0.91951C25.7617 1.11731 25.5349 1.36706 25.3638 1.65399C25.1928 1.94092 25.081 2.25922 25.035 2.59008L20.035 32.5901C19.9711 32.9179 19.9735 33.2553 20.0421 33.5822C20.1107 33.9091 20.2442 34.219 20.4346 34.4935C20.625 34.7679 20.8684 35.0015 21.1506 35.1803C21.4328 35.3591 21.7479 35.4795 22.0774 35.5345C22.4069 35.5895 22.744 35.5779 23.069 35.5003C23.3939 35.4228 23.7 35.281 23.9692 35.0832C24.2383 34.8854 24.4651 34.6356 24.6362 34.3487C24.8072 34.0617 24.919 33.7434 24.965 33.4126V33.4126Z" fill="url(#paint0_linear_201_276)"/>
<defs>
<linearGradient id="paint0_linear_201_276" x1="25" y1="0.434082" x2="25" y2="35.5686" gradientUnits="userSpaceOnUse">
<stop stop-color="#9949FF"/>
<stop offset="1" stop-color="#436CFF"/>
</linearGradient>
</defs>
</svg>
