<svg width="117" height="117" viewBox="0 0 117 117" fill="none" xmlns="http://www.w3.org/2000/svg">
<g filter="url(#filter0_di_201_309)">
<circle cx="58.5" cy="58.5" r="28.5" fill="#E64467"/>
</g>
<g opacity="0.8" clip-path="url(#clip0_201_309)">
<path d="M70.1475 59.0701L64.95 56.6776V49.8226C64.9476 49.6788 64.9039 49.5387 64.8242 49.419C64.7444 49.2993 64.6319 49.2051 64.5 49.1476L58.875 46.5601C58.7763 46.5144 58.6688 46.4907 58.56 46.4907C58.4512 46.4907 58.3437 46.5144 58.245 46.5601L52.62 49.1476C52.4898 49.2078 52.3797 49.3041 52.3026 49.4251C52.2255 49.5461 52.1847 49.6866 52.185 49.8301V56.6851L47.01 59.0701C46.8798 59.1303 46.7697 59.2266 46.6926 59.3476C46.6155 59.4686 46.5747 59.6091 46.575 59.7526V67.0876C46.5747 67.231 46.6155 67.3716 46.6926 67.4925C46.7697 67.6135 46.8798 67.7098 47.01 67.7701L52.635 70.3576C52.7337 70.4033 52.8412 70.4269 52.95 70.4269C53.0588 70.4269 53.1663 70.4033 53.265 70.3576L58.575 67.9126L63.885 70.3576C63.9837 70.4033 64.0912 70.4269 64.2 70.4269C64.3088 70.4269 64.4163 70.4033 64.515 70.3576L70.14 67.7701C70.2702 67.7098 70.3804 67.6135 70.4575 67.4925C70.5346 67.3716 70.5754 67.231 70.575 67.0876V59.7526C70.576 59.6099 70.5364 59.47 70.4606 59.3491C70.3849 59.2282 70.2763 59.1314 70.1475 59.0701ZM68.04 59.7526L64.2075 61.5001L60.375 59.7526L64.2075 57.9901L68.04 59.7526ZM58.575 48.0601L62.4075 49.8226L58.575 51.5851L54.75 49.8226L58.575 48.0601ZM52.95 57.9826L56.7825 59.7451L52.95 61.5001L49.1175 59.7526L52.95 57.9826ZM57.825 66.6001L52.95 68.8501L48.075 66.6001V60.9226L52.635 63.0001C52.7317 63.0435 52.8365 63.066 52.9425 63.066C53.0485 63.066 53.1533 63.0435 53.25 63.0001L57.81 60.9001L57.825 66.6001ZM53.7 56.6776V51.0001L58.26 53.1001C58.3587 53.1458 58.4662 53.1694 58.575 53.1694C58.6838 53.1694 58.7913 53.1458 58.89 53.1001L63.45 51.0001V56.6851L58.575 58.9351L53.7 56.6776ZM69.0825 66.6076L64.2075 68.8576L59.325 66.6076V60.9151L63.8925 63.0001C63.9882 63.0425 64.0916 63.0643 64.1963 63.0643C64.3009 63.0643 64.4044 63.0425 64.5 63.0001L69.06 60.9001L69.0825 66.6076Z" fill="#F8F8F8"/>
</g>
<defs>
<filter id="filter0_di_201_309" x="0" y="0" width="117" height="117" filterUnits="userSpaceOnUse" color-interpolation-filters="sRGB">
<feFlood flood-opacity="0" result="BackgroundImageFix"/>
<feColorMatrix in="SourceAlpha" type="matrix" values="0 0 0 0 0 0 0 0 0 0 0 0 0 0 0 0 0 0 127 0" result="hardAlpha"/>
<feOffset/>
<feGaussianBlur stdDeviation="15"/>
<feComposite in2="hardAlpha" operator="out"/>
<feColorMatrix type="matrix" values="0 0 0 0 0.901961 0 0 0 0 0.266667 0 0 0 0 0.403922 0 0 0 1 0"/>
<feBlend mode="normal" in2="BackgroundImageFix" result="effect1_dropShadow_201_309"/>
<feBlend mode="normal" in="SourceGraphic" in2="effect1_dropShadow_201_309" result="shape"/>
<feColorMatrix in="SourceAlpha" type="matrix" values="0 0 0 0 0 0 0 0 0 0 0 0 0 0 0 0 0 0 127 0" result="hardAlpha"/>
<feOffset/>
<feGaussianBlur stdDeviation="2"/>
<feComposite in2="hardAlpha" operator="arithmetic" k2="-1" k3="1"/>
<feColorMatrix type="matrix" values="0 0 0 0 1 0 0 0 0 1 0 0 0 0 1 0 0 0 1 0"/>
<feBlend mode="normal" in2="shape" result="effect2_innerShadow_201_309"/>
</filter>
<clipPath id="clip0_201_309">
<rect width="27" height="27" fill="white" transform="translate(45 45)"/>
</clipPath>
</defs>
</svg>
