<svg width="42" height="42" viewBox="0 0 42 42" fill="none" xmlns="http://www.w3.org/2000/svg">
<path d="M23.0833 25.1667L18.9167 29.3333M10.5833 21L21 31.4167L17.875 34.5417C17.1951 35.244 16.3823 35.804 15.4839 36.189C14.5854 36.574 13.6193 36.7764 12.6419 36.7843C11.6645 36.7923 10.6952 36.6056 9.79064 36.2352C8.88607 35.8648 8.06425 35.3181 7.37307 34.6269C6.6819 33.9358 6.13519 33.1139 5.76479 32.2094C5.3944 31.3048 5.20773 30.3355 5.21567 29.3581C5.2236 28.3807 5.42598 27.4146 5.81101 26.5161C6.19604 25.6177 6.75603 24.8049 7.45833 24.125L10.5833 21ZM31.4167 21L21 10.5833L24.125 7.45833C24.8049 6.75603 25.6177 6.19604 26.5161 5.81101C27.4146 5.42598 28.3807 5.2236 29.3581 5.21567C30.3355 5.20773 31.3048 5.3944 32.2094 5.76479C33.1139 6.13519 33.9358 6.6819 34.6269 7.37307C35.3181 8.06425 35.8648 8.88607 36.2352 9.79064C36.6056 10.6952 36.7923 11.6645 36.7843 12.6419C36.7764 13.6193 36.574 14.5854 36.189 15.4839C35.804 16.3823 35.244 17.1951 34.5417 17.875L31.4167 21ZM2.25 39.75L7.45833 34.5417L2.25 39.75ZM34.5417 7.45833L39.75 2.25L34.5417 7.45833ZM16.8333 18.9167L12.6667 23.0833L16.8333 18.9167Z" stroke="url(#paint0_linear_201_291)" stroke-width="4.16667" stroke-linecap="round" stroke-linejoin="round"/>
<defs>
<linearGradient id="paint0_linear_201_291" x1="21" y1="2.25" x2="21" y2="39.75" gradientUnits="userSpaceOnUse">
<stop stop-color="#9949FF"/>
<stop offset="1" stop-color="#436CFF"/>
</linearGradient>
</defs>
</svg>
