<svg width="42" height="42" viewBox="0 0 42 42" fill="none" xmlns="http://www.w3.org/2000/svg">
<path d="M16.1312 31.4167H25.8667H16.1312ZM21 2.25V4.33333V2.25ZM34.2583 7.74167L32.7854 9.21458L34.2583 7.74167ZM39.75 21H37.6667H39.75ZM4.33333 21H2.25H4.33333ZM9.21458 9.21458L7.74167 7.74167L9.21458 9.21458ZM13.6333 28.3667C12.1768 26.9098 11.185 25.0537 10.7833 23.0331C10.3816 21.0126 10.588 18.9183 11.3765 17.015C12.165 15.1118 13.5001 13.4851 15.2131 12.3406C16.926 11.1961 18.9399 10.5853 21 10.5853C23.0601 10.5853 25.074 11.1961 26.7869 12.3406C28.4999 13.4851 29.835 15.1118 30.6235 17.015C31.412 18.9183 31.6184 21.0126 31.2167 23.0331C30.815 25.0537 29.8232 26.9098 28.3667 28.3667L27.225 29.5062C26.5723 30.1591 26.0546 30.934 25.7014 31.7869C25.3483 32.6398 25.1665 33.554 25.1667 34.4771V35.5833C25.1667 36.6884 24.7277 37.7482 23.9463 38.5296C23.1649 39.311 22.1051 39.75 21 39.75C19.8949 39.75 18.8351 39.311 18.0537 38.5296C17.2723 37.7482 16.8333 36.6884 16.8333 35.5833V34.4771C16.8333 32.6125 16.0917 30.8229 14.775 29.5062L13.6333 28.3667Z" stroke="url(#paint0_linear_201_296)" stroke-width="4.16667" stroke-linecap="round" stroke-linejoin="round"/>
<defs>
<linearGradient id="paint0_linear_201_296" x1="21" y1="2.25" x2="21" y2="39.75" gradientUnits="userSpaceOnUse">
<stop stop-color="#9949FF"/>
<stop offset="1" stop-color="#436CFF"/>
</linearGradient>
</defs>
</svg>
