<svg width="20" height="20" viewBox="0 0 20 20" fill="none" xmlns="http://www.w3.org/2000/svg">
<path d="M15.8333 3.33337H4.16666C3.50362 3.33337 2.86773 3.59677 2.39889 4.06561C1.93005 4.53445 1.66666 5.17033 1.66666 5.83337V14.1667C1.66666 14.8297 1.93005 15.4656 2.39889 15.9345C2.86773 16.4033 3.50362 16.6667 4.16666 16.6667H15.8333C16.4964 16.6667 17.1322 16.4033 17.6011 15.9345C18.0699 15.4656 18.3333 14.8297 18.3333 14.1667V5.83337C18.3333 5.17033 18.0699 4.53445 17.6011 4.06561C17.1322 3.59677 16.4964 3.33337 15.8333 3.33337ZM15.8333 5.00004L10.4167 8.72504C10.29 8.79818 10.1463 8.83669 9.99999 8.83669C9.85371 8.83669 9.71001 8.79818 9.58332 8.72504L4.16666 5.00004H15.8333Z" fill="#7E5CC5"/>
</svg>
